<?xml version="1.0" encoding="UTF-8" standalone="no"?>
<!-- Created with Inkscape (http://www.inkscape.org/) -->

<svg
   width="364.561mm"
   height="204.38423mm"
   viewBox="0 0 364.561 204.38423"
   version="1.1"
   id="svg5"
   xml:space="preserve"
   xmlns:inkscape="http://www.inkscape.org/namespaces/inkscape"
   xmlns:sodipodi="http://sodipodi.sourceforge.net/DTD/sodipodi-0.dtd"
   xmlns="http://www.w3.org/2000/svg"
   xmlns:svg="http://www.w3.org/2000/svg"><sodipodi:namedview
     id="namedview7"
     pagecolor="#ffffff"
     bordercolor="#000000"
     borderopacity="0.25"
     inkscape:showpageshadow="2"
     inkscape:pageopacity="0.0"
     inkscape:pagecheckerboard="0"
     inkscape:deskcolor="#d1d1d1"
     inkscape:document-units="mm"
     showgrid="false" /><defs
     id="defs2" /><g
     inkscape:label="Capa 1"
     inkscape:groupmode="layer"
     id="layer1"
     transform="translate(-25.232339,-54.740401)"><path
       d="M 161.17866,227.0119 A 74.610796,74.610796 0 1 1 138.3569,120.54074 l -4.67852,7.77431 a 65.537296,65.537296 0 1 0 19.61136,94.14218 z"
       style="fill:#ff0000;stroke:#ff0000;stroke-width:0.084913;stroke-linecap:round"
       id="path85"
       inkscape:export-filename="CHERVO LOGO.svg"
       inkscape:export-xdpi="96"
       inkscape:export-ydpi="96" /><path
       d="m 104.42251,84.473047 v 95.458583 h 50.91968 v 9.07351 H 95.349009 V 84.473047 Z"
       style="fill:#d6d6d6;stroke-width:0.084913"
       id="path87" /><path
       d="m 104.42251,84.473047 v 95.458583 h 50.91968 v 9.07351 H 95.349009 V 84.473047 Z"
       style="fill:#4d4d4d;stroke:#d6d6d6;stroke-width:0.084913;stroke-linecap:round"
       id="path89" /><g
       inkscape:label="TEXTOS"
       id="g97"
       transform="matrix(0.08491298,0,0,0.08491298,-296.19837,671.14153)"><path
         d="m 4801.1459,-7122.2265 a 136.55717,136.55717 0 0 0 -273.1143,0 136.55717,136.55717 0 0 0 273.1143,0 z"
         style="fill:#ff0000"
         id="path93" /><path
         d="m 4801.1459,-7122.2265 a 136.55717,136.55717 0 0 0 -273.1143,0 136.55717,136.55717 0 0 0 273.1143,0 z"
         style="fill:none;stroke:#ff0000;stroke-linecap:round"
         id="path95" /></g><g
       aria-label="HERVO"
       transform="scale(0.98973476,1.0103717)"
       id="text1341"
       style="font-size:74.9124px;fill:#ff0000;stroke-width:6.24268"><path
         d="m 203.59235,146.23866 h 7.31566 v 51.09992 h -7.31566 v -22.23962 h -28.71398 v 22.23962 h -7.31567 v -51.09992 h 7.31567 v 22.09331 h 28.71398 z"
         style="font-family:'Gill Sans MT';-inkscape-font-specification:'Gill Sans MT'"
         id="path1495" /><path
         d="m 222.17413,146.23866 h 28.97003 v 6.51095 H 229.4898 v 15.58236 h 20.9228 v 6.54752 h -20.9228 v 15.87499 h 22.34935 v 6.51094 h -29.66502 z"
         style="font-family:'Gill Sans MT';-inkscape-font-specification:'Gill Sans MT'"
         id="path1497" /><path
         d="m 259.8498,197.33858 v -51.09992 h 12.80241 q 7.75461,0 12.29032,3.84073 4.57229,3.84072 4.57229,10.38824 0,4.46256 -2.23128,7.71803 -2.23128,3.25547 -6.40121,4.86491 2.45075,1.60945 4.79176,4.3894 2.34102,2.77995 6.5841,9.69326 2.67022,4.35282 4.27966,6.54752 l 2.7068,3.65783 h -8.70564 l -2.23128,-3.36521 q -0.10973,-0.18289 -0.43894,-0.62183 l -1.42655,-2.01181 -2.26786,-3.73099 -2.45074,-3.98703 q -2.26786,-3.14574 -4.16993,-5.01123 -1.8655,-1.8655 -3.40179,-2.67022 -1.49971,-0.8413 -5.08438,-0.8413 h -1.90208 v 22.23962 z m 9.51036,-44.8816 h -2.1947 v 16.13104 h 2.77996 q 5.5599,0 7.60829,-0.95104 2.08496,-0.95103 3.21889,-2.85311 1.17051,-1.93865 1.17051,-4.3894 0,-2.41417 -1.28025,-4.35282 -1.28024,-1.97523 -3.62125,-2.77995 -2.30443,-0.80472 -7.68145,-0.80472 z"
         style="font-family:'Gill Sans MT';-inkscape-font-specification:'Gill Sans MT'"
         id="path1499" /><path
         d="m 331.2141,146.23866 h 7.27909 l -21.58121,51.31939 h -1.64603 L 293.2458,146.23866 h 7.35225 l 15.36289,35.88334 z"
         style="font-family:'Gill Sans MT';-inkscape-font-specification:'Gill Sans MT'"
         id="path1501" /><path
         d="m 366.21956,145.5071 q 11.85138,0 19.71572,7.49855 7.90091,7.49856 7.90091,18.80126 0,11.3027 -7.97407,18.7281 -7.93749,7.38882 -20.04492,7.38882 -11.55875,0 -19.27677,-7.38882 -7.68145,-7.4254 -7.68145,-18.58179 0,-11.44901 7.7546,-18.94757 7.75461,-7.49855 19.60598,-7.49855 z m 0.29263,6.94988 q -8.7788,0 -14.44844,5.48675 -5.63306,5.48674 -5.63306,14.00949 0,8.2667 5.66964,13.75345 5.66964,5.48675 14.19239,5.48675 8.55933,0 14.26554,-5.59648 5.7428,-5.59649 5.7428,-13.93634 0,-8.12039 -5.7428,-13.64372 -5.70621,-5.5599 -14.04607,-5.5599 z"
         style="font-family:'Gill Sans MT';-inkscape-font-specification:'Gill Sans MT'"
         id="path1503" /></g></g></svg>
